HIERARCHY
ROOT joint_Root
{
	OFFSET 0.0 0.0 0.0
	CHANNELS 6 Xposition Yposition Zposition Zrotation Xrotation Yrotation 
	JOINT Hips
	{
		OFFSET -0.726466 93.3139 -2.00062
		CHANNELS 6 Xposition Yposition Zposition Zrotation Xrotation Yrotation 
		JOINT Spine
		{
			OFFSET 15.7357 0.0 0.0
			CHANNELS 6 Xposition Yposition Zposition Zrotation Xrotation Yrotation 
			JOINT Chest
			{
				OFFSET 8.98455 -0.406207 0.0
				CHANNELS 6 Xposition Yposition Zposition Zrotation Xrotation Yrotation 
				JOINT Neck
				{
					OFFSET 16.3773 0.0 0.0
					CHANNELS 6 Xposition Yposition Zposition Zrotation Xrotation Yrotation 
					JOINT Head
					{
						OFFSET 6.45672 0.0 0.0
						CHANNELS 6 Xposition Yposition Zposition Zrotation Xrotation Yrotation 
						End Site
						{
							OFFSET 0.0 0.0 0.0
						}
					}
				}
				JOINT Shoulder_L
				{
					OFFSET 12.9942 -0.242716 4.98039
					CHANNELS 6 Xposition Yposition Zposition Zrotation Xrotation Yrotation 
					JOINT UpperArm_L
					{
						OFFSET 5.34809 0.0 0.0
						CHANNELS 6 Xposition Yposition Zposition Zrotation Xrotation Yrotation 
						JOINT LowerArm_L
						{
							OFFSET 24.3286 1.87007e-05 0.0
							CHANNELS 6 Xposition Yposition Zposition Zrotation Xrotation Yrotation 
							JOINT Hand_L
							{
								OFFSET 22.2916 0.0 0.0
								CHANNELS 6 Xposition Yposition Zposition Zrotation Xrotation Yrotation 
								End Site
								{
									OFFSET 0.0 0.0 0.0
								}
							}
						}
					}
				}
				JOINT Shoulder_R
				{
					OFFSET 12.9945 -0.242716 -4.98039
					CHANNELS 6 Xposition Yposition Zposition Zrotation Xrotation Yrotation 
					JOINT UpperArm_R
					{
						OFFSET -5.34813 0.0 0.0
						CHANNELS 6 Xposition Yposition Zposition Zrotation Xrotation Yrotation 
						JOINT LowerArm_R
						{
							OFFSET -24.3289 0.000322201 0.0
							CHANNELS 6 Xposition Yposition Zposition Zrotation Xrotation Yrotation 
							JOINT Hand_R
							{
								OFFSET -22.2915 -0.000108084 0.0
								CHANNELS 6 Xposition Yposition Zposition Zrotation Xrotation Yrotation 
								End Site
								{
									OFFSET 0.0 0.0 0.0
								}
							}
						}
					}
				}
			}
		}
		JOINT UpperLeg_L
		{
			OFFSET -2.19248 -6.46944 0.0
			CHANNELS 6 Xposition Yposition Zposition Zrotation Xrotation Yrotation 
			JOINT LowerLeg_L
			{
				OFFSET 39.0811 0.0 -1.23785e-05
				CHANNELS 6 Xposition Yposition Zposition Zrotation Xrotation Yrotation 
				JOINT Foot_L
				{
					OFFSET 40.9854 0.0 -1.26872e-05
					CHANNELS 6 Xposition Yposition Zposition Zrotation Xrotation Yrotation 
					JOINT Toes_L
					{
						OFFSET 11.7543 0.0 0.0
						CHANNELS 6 Xposition Yposition Zposition Zrotation Xrotation Yrotation 
						End Site
						{
							OFFSET 0.0 0.0 0.0
						}
					}
				}
			}
		}
		JOINT UpperLeg_R
		{
			OFFSET -2.19251 6.46944 0.0
			CHANNELS 6 Xposition Yposition Zposition Zrotation Xrotation Yrotation 
			JOINT LowerLeg_R
			{
				OFFSET -39.0811 -0.00228153 -0.0401928
				CHANNELS 6 Xposition Yposition Zposition Zrotation Xrotation Yrotation 
				JOINT Foot_R
				{
					OFFSET -40.9854 0.0 0.0
					CHANNELS 6 Xposition Yposition Zposition Zrotation Xrotation Yrotation 
					JOINT Toes_R
					{
						OFFSET -11.7543 0.0 0.0
						CHANNELS 6 Xposition Yposition Zposition Zrotation Xrotation Yrotation 
						End Site
						{
							OFFSET 0.0 0.0 0.0
						}
					}
				}
			}
		}
	}
}
MOTION
Frames:	7
Frame Time:	0.0333333
0.000000 0.000000 0.000000 0.000000 0.000000 -0.000000 -1.218420 92.060200 -2.002180 87.688200 -1.349300 4.523540 15.735700 0.000005 -0.000001 84.548300 84.583000 -83.953800 8.984550 -0.406207 -0.000000 3.025070 -1.052830 1.215520 16.377300 -0.000001 -0.000001 3.688730 -1.650650 1.996400 6.456720 -0.000001 -0.000000 2.224930 -0.556358 -1.652160 12.994200 -0.242716 4.980390 -90.258500 0.804915 -72.193100 5.348090 -0.000007 -0.000001 -64.738400 37.094300 -11.836900 24.328600 0.000019 0.000005 3.831000 6.927860 -29.037100 22.291600 -0.000001 0.000005 6.965230 5.646870 -14.722800 12.994500 -0.242716 -4.980390 87.825500 6.485410 -71.418600 -5.348130 -0.000001 -0.000004 -64.860700 27.375300 -11.396200 -24.328900 0.000322 -0.000009 -0.084417 -0.192344 -23.427700 -22.291500 -0.000108 -0.000004 4.425720 5.580780 -10.253600 -2.192480 -6.469440 -0.000000 -168.706000 -19.543800 -2.552250 39.081100 -0.000007 -0.000012 -0.171612 0.407160 22.855000 40.985400 -0.000006 -0.000013 -5.940270 0.725208 -63.319400 11.754300 -0.000000 0.000003 -0.000095 -0.000988 -16.615500 -2.192510 6.469440 -0.000001 174.048000 24.158000 179.979000 -39.081100 -0.002282 -0.040193 -0.035280 0.105032 20.179200 -40.985400 0.000008 0.000006 -2.811360 3.527720 -63.112700 -11.754300 -0.000006 -0.000006 -0.003544 -0.046608 -18.468800
0.000000 0.000000 0.000000 0.000000 0.000000 -0.000000 -1.215700 92.060800 -2.024380 87.662500 -1.402190 4.557090 15.735700 0.000005 -0.000001 84.624100 84.567400 -84.030400 8.984550 -0.406207 -0.000000 3.057500 -1.041290 1.214120 16.377300 -0.000001 -0.000001 3.655270 -1.622630 1.999910 6.456720 -0.000001 -0.000000 2.241540 -0.588024 -1.651480 12.994200 -0.242716 4.980390 -90.249300 0.777399 -72.218600 5.348090 -0.000007 -0.000001 -64.551700 37.240000 -11.979800 24.328600 0.000019 0.000005 3.894990 7.010090 -29.155700 22.291600 -0.000001 0.000005 6.971740 5.647080 -14.742200 12.994500 -0.242716 -4.980390 87.813200 6.523500 -71.422000 -5.348130 -0.000001 -0.000004 -64.164100 27.078800 -12.166400 -24.328900 0.000322 -0.000009 -0.159087 -0.359221 -23.744200 -22.291500 -0.000108 -0.000004 4.699490 5.580390 -10.233300 -2.192480 -6.469440 -0.000000 -168.681000 -19.584800 -2.542240 39.081100 -0.000007 -0.000012 -0.170042 0.402647 22.895100 40.985400 -0.000006 -0.000013 -5.931430 0.685995 -63.329700 11.754300 -0.000000 0.000003 -0.000098 -0.001013 -16.616400 -2.192510 6.469440 -0.000001 174.077000 24.139900 179.974000 -39.081100 -0.002282 -0.040193 -0.034154 0.101839 20.202700 -40.985400 0.000008 0.000006 -2.699490 3.545770 -63.110100 -11.754300 -0.000006 -0.000006 -0.003559 -0.046770 -18.475400
0.000000 0.000000 0.000000 0.000000 0.000000 -0.000000 -1.210630 92.064900 -2.051090 87.662200 -1.440350 4.612110 15.735700 0.000005 -0.000001 84.474000 84.547800 -83.892800 8.984550 -0.406207 -0.000000 3.093820 -1.072660 1.190070 16.377300 -0.000001 -0.000001 3.664200 -1.592850 1.983130 6.456720 -0.000001 -0.000000 2.219330 -0.545326 -1.637780 12.994200 -0.242716 4.980390 -90.222800 0.695666 -72.239100 5.348090 -0.000007 -0.000001 -64.417400 37.326300 -12.082300 24.328600 0.000019 0.000005 3.930790 7.041650 -29.270700 22.291600 -0.000001 0.000005 7.115290 5.648360 -14.860300 12.994500 -0.242716 -4.980390 87.823900 6.487920 -71.413000 -5.348130 -0.000001 -0.000004 -63.362800 26.344500 -13.232900 -24.328900 0.000322 -0.000009 -0.070829 -0.155848 -24.122200 -22.291500 -0.000108 -0.000004 4.890510 5.581530 -10.294500 -2.192480 -6.469440 -0.000000 -168.666000 -19.548000 -2.476300 39.081100 -0.000007 -0.000012 -0.170199 0.403562 22.867300 40.985400 -0.000006 -0.000013 -5.937310 0.649099 -63.313800 11.754300 -0.000000 0.000003 -0.000087 -0.000918 -16.612900 -2.192510 6.469440 -0.000001 174.056000 24.102100 -179.971000 -39.081100 -0.002282 -0.040193 -0.033962 0.101479 20.173100 -40.985400 0.000008 0.000006 -2.704710 3.579300 -63.079200 -11.754300 -0.000006 -0.000006 -0.003582 -0.047021 -18.485600
0.000000 0.000000 0.000000 0.000000 0.000000 -0.000000 -1.188050 92.059900 -2.086110 87.650100 -1.479450 4.676060 15.735700 0.000005 -0.000001 84.376500 84.528300 -83.802200 8.984550 -0.406207 -0.000000 3.130840 -1.094430 1.177260 16.377300 -0.000001 -0.000001 3.655550 -1.570140 2.001430 6.456720 -0.000001 -0.000000 2.256670 -0.482030 -1.634170 12.994200 -0.242716 4.980390 -90.203000 0.634559 -72.262300 5.348090 -0.000007 -0.000001 -64.097700 37.554100 -12.276300 24.328600 0.000019 0.000005 3.869910 6.865800 -29.503600 22.291600 -0.000001 0.000005 7.046420 5.649630 -14.979800 12.994500 -0.242716 -4.980390 87.799500 6.539250 -71.355500 -5.348130 -0.000001 -0.000004 -61.987400 25.475400 -14.580600 -24.328900 0.000322 -0.000009 0.021541 0.048012 -25.118700 -22.291500 -0.000108 -0.000004 5.080970 5.578200 -10.115900 -2.192480 -6.469440 -0.000000 -168.652000 -19.547100 -2.461610 39.081100 -0.000007 -0.000012 -0.171158 0.404402 22.940100 40.985400 -0.000006 -0.000013 -5.923260 0.615924 -63.338400 11.754300 -0.000000 0.000003 -0.000086 -0.000908 -16.612500 -2.192510 6.469440 -0.000001 174.028000 24.130600 -179.952000 -39.081100 -0.002282 -0.040193 -0.035214 0.104719 20.202900 -40.985400 0.000008 0.000006 -2.759250 3.630540 -63.046900 -11.754300 -0.000006 -0.000006 -0.003506 -0.046205 -18.452400
0.000000 0.000000 0.000000 0.000000 0.000000 -0.000000 -1.143190 92.060400 -2.113530 87.666800 -1.554000 4.724330 15.735700 0.000005 -0.000001 84.385000 84.525300 -83.827600 8.984550 -0.406207 -0.000000 3.136880 -1.092690 1.143520 16.377300 -0.000001 -0.000001 3.699230 -1.538760 2.034300 6.456720 -0.000001 -0.000000 2.333690 -0.430973 -1.677660 12.994200 -0.242716 4.980390 -90.181300 0.567135 -72.273100 5.348090 -0.000007 -0.000001 -63.306100 38.468400 -12.733000 24.328600 0.000019 0.000005 3.867400 6.747800 -29.913000 22.291600 -0.000001 0.000005 7.194550 5.651210 -15.131200 12.994500 -0.242716 -4.980390 87.799700 6.509630 -71.278100 -5.348130 -0.000001 -0.000004 -60.358700 24.158700 -16.189500 -24.328900 0.000322 -0.000009 0.138490 0.277617 -26.697700 -22.291500 -0.000108 -0.000004 5.145750 5.571650 -9.773120 -2.192480 -6.469440 -0.000000 -168.682000 -19.619400 -2.428010 39.081100 -0.000007 -0.000012 -0.170485 0.402241 22.969300 40.985400 -0.000006 -0.000013 -5.884400 0.613145 -63.349300 11.754300 -0.000000 0.000003 -0.000087 -0.000912 -16.612700 -2.192510 6.469440 -0.000001 173.962000 24.078800 -179.926000 -39.081100 -0.002282 -0.040193 -0.035303 0.104987 20.198200 -40.985400 0.000008 0.000006 -2.782930 3.698500 -63.008000 -11.754300 -0.000006 -0.000006 -0.003750 -0.048817 -18.558700
0.000000 0.000000 0.000000 0.000000 0.000000 -0.000000 -1.096000 92.056900 -2.160220 87.680200 -1.625930 4.807780 15.735700 0.000005 -0.000001 84.269500 84.513800 -83.729300 8.984550 -0.406207 -0.000000 3.157450 -1.116120 1.109920 16.377300 -0.000001 -0.000001 3.785760 -1.526910 2.071300 6.456720 -0.000001 -0.000000 2.379230 -0.359159 -1.750910 12.994200 -0.242716 4.980390 -90.157500 0.493415 -72.295700 5.348090 -0.000007 -0.000001 -62.046800 39.909800 -13.390500 24.328600 0.000019 0.000005 4.130680 6.978580 -30.726900 22.291600 -0.000001 0.000005 7.053090 5.652870 -15.295300 12.994500 -0.242716 -4.980390 87.842500 6.376820 -71.263700 -5.348130 -0.000001 -0.000004 -58.526700 22.467300 -18.011400 -24.328900 0.000322 -0.000009 0.054195 0.100451 -28.938100 -22.291500 -0.000108 -0.000004 5.427880 5.565820 -9.475920 -2.192480 -6.469440 -0.000000 -168.692000 -19.677500 -2.376010 39.081100 -0.000007 -0.000012 -0.170875 0.402067 23.025300 40.985400 -0.000006 -0.000013 -5.844350 0.629843 -63.369300 11.754300 -0.000000 0.000003 -0.000096 -0.000990 -16.615600 -2.192510 6.469440 -0.000001 173.883000 24.022100 -179.869000 -39.081100 -0.002282 -0.040193 -0.037183 0.110140 20.190800 -40.985400 0.000008 0.000006 -2.939560 3.748940 -62.947400 -11.754300 -0.000006 -0.000006 -0.003715 -0.048445 -18.543600
0.000000 0.000000 0.000000 0.000000 0.000000 -0.000000 -1.057020 92.057700 -2.215530 87.685900 -1.678530 4.868930 15.735700 0.000005 -0.000001 84.164300 84.517100 -83.641800 8.984550 -0.406207 -0.000000 3.148870 -1.134810 1.075020 16.377300 -0.000001 -0.000001 3.892400 -1.518670 2.110620 6.456720 -0.000001 -0.000000 2.436180 -0.304184 -1.865010 12.994200 -0.242716 4.980390 -90.125100 0.392726 -72.326800 5.348090 -0.000007 -0.000001 -60.252500 41.927800 -14.322400 24.328600 0.000019 0.000005 4.276260 6.916670 -31.836300 22.291600 -0.000001 0.000005 7.168700 5.656520 -15.672000 12.994500 -0.242716 -4.980390 87.924500 6.097570 -71.161400 -5.348130 -0.000001 -0.000004 -56.536700 20.501700 -20.196200 -24.328900 0.000322 -0.000009 -0.209257 -0.338786 -31.563900 -22.291500 -0.000108 -0.000004 5.846030 5.557380 -9.060220 -2.192480 -6.469440 -0.000000 -168.711000 -19.693600 -2.361270 39.081100 -0.000007 -0.000012 -0.170800 0.401166 23.062600 40.985400 -0.000006 -0.000013 -5.812790 0.604206 -63.364800 11.754300 -0.000000 0.000003 -0.000087 -0.000917 -16.612800 -2.192510 6.469440 -0.000001 173.853000 23.935800 -179.870000 -39.081100 -0.002282 -0.040193 -0.039421 0.116160 20.201600 -40.985400 0.000008 0.000006 -2.972330 3.701690 -62.895200 -11.754300 -0.000006 -0.000006 -0.003689 -0.048163 -18.532100
